<svg width="110" height="105" viewBox="0 0 110 105" fill="none" xmlns="http://www.w3.org/2000/svg">
<path d="M46.1565 40.0967C41.21 40.0958 36.4663 42.0613 32.9696 45.5589C29.4729 49.0572 27.5093 53.8009 27.5103 58.7467V66.7332H82.9868V58.7467C82.9887 53.8011 81.0241 49.0575 77.5275 45.5598C74.0308 42.0614 69.2881 40.0967 64.3425 40.0967H46.1565ZM38.9199 51.3603L44.395 57.2412L38.9199 63.1277L33.4456 57.2412L38.9199 51.3603ZM55.2519 51.3603L60.727 57.2412L55.2519 63.1277L49.7767 57.2412L55.2519 51.3603ZM71.5839 51.3603L77.0581 57.2412L71.5839 63.1277L66.1042 57.2412L71.5839 51.3603Z" fill="#233D34"/>
<path d="M27.3473 68.1104C25.8365 73.3189 22.5548 77.8373 18.0675 80.885C14.9592 82.3192 12.2264 84.4563 10.0864 87.1282C10.4701 87.0378 10.8631 86.9899 11.2569 86.9871H99.2473C99.6421 86.9899 100.035 87.0378 100.419 87.1282C98.277 84.4563 95.5423 82.3182 92.4321 80.885C87.9477 77.8366 84.6668 73.3189 83.1571 68.1104H27.3473ZM30.7555 71.4401L36.2297 77.3165L30.7555 83.1973L25.2758 77.3165L30.7555 71.4401ZM47.0866 71.4401L52.5617 77.3165L47.0866 83.1973L41.6123 77.3165L47.0866 71.4401ZM63.4186 71.4401L68.8928 77.3165L63.4186 83.1973L57.9434 77.3165L63.4186 71.4401ZM79.7496 71.4401L85.2248 77.3165L79.7496 83.1973L74.2754 77.3165L79.7496 71.4401Z" fill="#233D34"/>
<path d="M106.4 97.4531H4.10114C2.24261 97.4587 0.739258 98.9676 0.739258 100.826C0.739258 102.685 2.24268 104.194 4.10114 104.2H106.4C108.259 104.194 109.762 102.685 109.762 100.826C109.762 98.9676 108.259 97.4586 106.4 97.4531Z" fill="#233D34"/>
<path d="M99.246 88.3721H11.2579C9.88268 88.3739 8.61264 89.1081 7.92553 90.2998C7.23837 91.4905 7.23837 92.958 7.92553 94.1497C8.61268 95.3405 9.88275 96.0756 11.2579 96.0774H99.246C100.621 96.0756 101.891 95.3405 102.578 94.1497C103.265 92.9581 103.265 91.4905 102.578 90.2998C101.891 89.1081 100.621 88.3739 99.246 88.3721Z" fill="#233D34"/>
<path d="M52.9144 2.79448L50.187 30.4584H60.3154L57.588 2.79448H57.5871C57.469 1.59267 56.4581 0.676758 55.2508 0.676758C54.0434 0.676758 53.0334 1.59265 52.9144 2.79448Z" fill="#233D34"/>
<path d="M40.3882 39.5655L42.7945 31.8345H67.7076L70.1132 39.5655H70.1123C68.2408 39.0038 66.2975 38.7188 64.3438 38.7198H46.1588C44.2043 38.7179 42.2599 39.0029 40.3884 39.5655H40.3882Z" fill="#233D34"/>
<path d="M58.8407 57.2445L55.2529 61.0935L51.6641 57.2445L55.2529 53.3892L58.8407 57.2445Z" fill="#233D34"/>
<path d="M67.9932 57.2445L71.582 61.0935L75.1717 57.2445L71.582 53.3892L67.9932 57.2445Z" fill="#233D34"/>
<path d="M50.6737 77.3173L47.0849 81.1726L43.4961 77.3173L47.0849 73.4683L50.6737 77.3173Z" fill="#233D34"/>
<path d="M59.8281 77.3173L63.4179 81.1726L67.0057 77.3173L63.4179 73.4683L59.8281 77.3173Z" fill="#233D34"/>
<path d="M34.3431 77.3173L30.7534 81.1726L27.1655 77.3173L30.7534 73.4683L34.3431 77.3173Z" fill="#233D34"/>
<path d="M76.1606 77.3173L79.7494 81.1726L83.3382 77.3173L79.7494 73.4683L76.1606 77.3173Z" fill="#233D34"/>
<path d="M42.5087 57.2445L38.9199 61.0935L35.3311 57.2445L38.9199 53.3892L42.5087 57.2445Z" fill="#233D34"/>
</svg>
