<svg width="100" height="105" viewBox="0 0 100 105" fill="none" xmlns="http://www.w3.org/2000/svg">
<path d="M96.6398 74.2095C95.036 88.2475 88.2312 94.6948 79.239 96.4697C64.6385 99.3256 55.6297 84.1771 60.0403 70.7017C60.1954 70.2134 60.6837 69.9023 61.1947 69.947C63.5355 70.1426 60.4307 75.2644 66.5432 78.8254C72.3362 82.2209 79.9269 80.9781 84.1659 75.9399C97.3912 60.228 83.3851 36.2743 71.9366 57.7844C70.0275 61.4684 67.7197 64.3988 64.8342 66.7513C61.2758 69.7169 57.9955 69.4192 53.1817 69.1038C67.5014 98.6193 32.8026 117.093 12.2318 93.3629C4.44201 84.4213 1.66769 71.0099 3.75318 59.515C3.93278 58.6608 4.74059 58.0705 5.50625 58.4053C7.24415 59.1659 6.55944 80.7022 21.886 87.4804C41.4632 96.2567 55.0949 73.6826 39.1089 69.2802C36.6012 68.5702 33.9821 68.8586 30.8967 70.1235C30.4768 70.2634 29.9641 70.7517 29.2769 70.4346C28.4252 70.0417 28.9573 70.2095 23.6171 54.2766C23.3759 53.4578 24.0378 52.6972 24.86 52.8338C30.3048 53.7807 39.1307 55.2791 42.4607 50.1262C44.5746 46.8299 42.4978 42.72 36.6897 42.2691C34.4037 42.0692 32.0283 42.5574 29.0551 43.8451C21.0832 47.2255 19.2947 51.0403 18.1573 48.9281L11.8542 36.9872C11.2277 35.8387 12.8071 35.2257 13.0752 34.9449C13.7186 34.4786 14.3628 34.0351 15.0281 33.6134C20.2217 30.3282 25.3932 28.4199 30.8311 27.7757C53.5511 25.0107 58.0929 48.9391 43.0604 60.5789C47.9864 62.5756 49.2573 63.138 50.5844 62.1102C54.8756 58.723 58.3321 49.2542 63.3249 44.3096C76.3982 31.1922 100.078 43.0363 96.6396 74.2071L96.6398 74.2095Z" fill="#233D34"/>
<path d="M88.629 25.4258L88.4738 25.6257C88.3625 25.7808 88.2521 25.9368 88.1188 26.0692C73.6845 43.3435 42.1824 36.4351 42.8861 11.4207C42.908 10.8878 43.2858 10.4442 43.8187 10.3557C44.3516 10.2891 44.8618 10.5775 45.0397 11.0657L45.2395 11.5986C45.3509 11.9536 45.4841 12.3086 45.6165 12.6417C49.4354 21.563 61.6252 28.0164 73.6943 19.3446C75.0257 18.39 76.2687 17.325 77.601 16.1925C78.2005 15.6823 78.7992 15.1713 79.4207 14.6612C79.9089 14.2843 80.597 14.35 80.9748 14.8163L88.6102 24.0269C88.9416 24.4266 88.9416 25.0042 88.6304 25.4259L88.629 25.4258Z" fill="#233D34"/>
<path d="M54.6925 9.39955C54.249 8.97794 54.249 8.26793 54.6925 7.84548L61.5066 1.00941C61.9501 0.565872 62.661 0.565872 63.0826 1.00941L69.9186 7.84548C70.3402 8.26709 70.3402 8.9771 69.9186 9.39955L63.0826 16.2356C62.8608 16.4574 62.5943 16.5687 62.3059 16.5687C62.0175 16.5687 61.7292 16.4574 61.5066 16.2356L54.6925 9.39955Z" fill="#233D34"/>
</svg>
