<svg width="100" height="101" viewBox="0 0 100 101" fill="none" xmlns="http://www.w3.org/2000/svg">
<mask id="mask0_3025_2943" style="mask-type:luminance" maskUnits="userSpaceOnUse" x="0" y="7" width="100" height="94">
<path d="M0 7.73633H100V100.212H0V7.73633Z" fill="white"/>
</mask>
<g mask="url(#mask0_3025_2943)">
<path d="M99.5473 74.8689C99.3109 74.6503 98.9731 74.5092 98.6185 74.5092C98.3654 74.5092 98.129 74.572 97.9429 74.6813C89.9528 79.1969 80.7461 81.5873 71.3206 81.5873C43.1275 81.5873 20.2026 60.3689 20.2026 34.3055C20.2026 25.6022 22.7869 17.0867 27.6865 9.69696C28.0075 9.21237 27.9229 8.60296 27.4836 8.19667C27.2472 7.97802 26.9094 7.83691 26.5548 7.83691C26.3017 7.83691 26.0653 7.89972 25.8792 8.00904C9.69424 17.1504 0.065918 33.0265 0.065918 50.4934C0.065918 77.9006 24.1882 100.213 53.8363 100.213C72.7221 100.213 89.8857 91.3063 99.7505 76.3683C100.072 75.8845 99.9701 75.244 99.5484 74.8688L99.5473 74.8689Z" fill="#233D34"/>
</g>
<path d="M58.0925 57.0411C58.0925 56.6193 58.4471 56.2758 58.9199 56.2758C59.3591 56.2758 59.7473 56.6038 59.7473 57.0411V60.3534H64.241V57.0411C64.241 56.6193 64.5956 56.2758 65.0684 56.2758C65.5244 56.2758 65.8958 56.6038 65.8958 57.0411V60.3534H70.3895V57.0411C70.3895 56.6193 70.7609 56.2758 71.2169 56.2758C71.6729 56.2758 72.0442 56.6038 72.0442 57.0411V60.3534H76.555V57.0411C76.555 56.6193 76.9096 56.2758 77.3823 56.2758C77.8216 56.2758 78.2097 56.6038 78.2097 57.0411V60.3534H82.7035V57.0411C82.7035 56.6193 83.058 56.2758 83.5308 56.2758C83.9868 56.2758 84.3582 56.6038 84.3582 57.0411V60.3534H88.852V57.0411C88.852 56.6193 89.2233 56.2758 89.6793 56.2758C90.1353 56.2758 90.5067 56.6038 90.5067 57.0411V60.3534H92.2301V54.5098L57.5005 54.5105C57.4159 54.526 57.3488 54.526 57.2809 54.5105H55.5239V60.3542H58.0915L58.0925 57.0411Z" fill="#233D34"/>
<path d="M57.6522 53.4464H90.1715L90.2394 53.0556C91.6586 43.6181 88.3978 37.2278 80.239 33.5085C77.7385 32.3525 75.6613 30.6491 74.2085 28.5866L73.7525 27.9307L73.3635 28.6184C72.5018 30.1187 71.0492 32.0717 68.9041 32.8061C59.8326 36.3997 56.1333 43.025 57.6028 53.0399L57.6522 53.4464Z" fill="#233D34"/>
<path d="M51.3351 20.6821L53.6999 18.4942V15.3066H39.4766V18.6196L41.7064 20.6821H51.3351Z" fill="#233D34"/>
<path d="M41.9077 21.2915H51.1478V29.7133H41.9077V21.2915Z" fill="#233D34"/>
<path d="M41.7067 36.1187H51.3356L53.7004 33.4941V30.3223H39.4771L39.5106 34.0719L41.7067 36.1187Z" fill="#233D34"/>
<path d="M41.9077 36.728H51.1478V67.3845H41.9077V36.728Z" fill="#233D34"/>
<path d="M49.7465 9.18193C49.7465 8.44768 49.4423 7.74444 48.868 7.19783C48.2938 6.66671 47.5335 6.38525 46.723 6.38525C45.0506 6.38525 43.6826 7.65062 43.6826 9.18195V14.6977H49.7474L49.7465 9.18193Z" fill="#233D34"/>
<path d="M51.8074 67.3846H95.3395V63.2287L93.5147 61.5407L93.363 61.2593L93.0419 61.4159H54.7973L51.8071 63.3845L51.8074 67.3846Z" fill="#233D34"/>
<mask id="mask1_3025_2943" style="mask-type:luminance" maskUnits="userSpaceOnUse" x="45" y="0" width="4" height="6">
<path d="M45.2793 0.211914H48.069V5.94941H45.2793V0.211914Z" fill="white"/>
</mask>
<g mask="url(#mask1_3025_2943)">
<path d="M46.723 5.75923C46.9762 5.75923 47.2125 5.79024 47.4498 5.82203L48.0407 5.93136V1.43124C48.0407 0.743515 47.4665 0.212402 46.723 0.212402C45.9962 0.212402 45.4053 0.759017 45.4053 1.43124V5.93136L45.9962 5.82203C46.2159 5.79024 46.4698 5.75923 46.723 5.75923Z" fill="#233D34"/>
</g>
</svg>
