<svg width="107" height="104" viewBox="0 0 107 104" fill="none" xmlns="http://www.w3.org/2000/svg">
<mask id="mask0_3025_1260" style="mask-type:luminance" maskUnits="userSpaceOnUse" x="0" y="49" width="107" height="55">
<path d="M0.5 49.8311H106.171V103.735H0.5V49.8311Z" fill="white"/>
</mask>
<g mask="url(#mask0_3025_1260)">
<path d="M105.052 101.405H95.7892V95.758H66.5678C65.0037 95.758 63.7314 97.0312 63.7314 98.5952C63.7314 100.031 64.8031 101.217 66.1869 101.404H62.341C61.679 100.408 61.3865 99.1885 61.5307 98.002V68.919C61.5307 66.1636 63.8593 63.8409 66.608 63.8409H73.2592L72.725 62.0081C71.3199 57.1865 67.4363 53.3685 62.5918 52.0436L55.1042 49.9961L46.7621 70.505V74.7532H50.8143C51.4321 74.7532 51.9335 75.2546 51.9335 75.8732C51.9335 76.4918 51.4321 76.9932 50.8143 76.9932H46.7621V88.1924C46.7621 88.811 46.2607 89.3124 45.6429 89.3124C45.0252 89.3124 44.5237 88.811 44.5237 88.1924V76.9932H40.4715C39.8537 76.9932 39.3523 76.4918 39.3523 75.8732C39.3523 75.2546 39.8537 74.7532 40.4715 74.7532H44.5237V70.5279L35.73 50.0181L28.3538 51.9369C23.4141 53.2216 19.4625 57.0658 18.0411 61.9686L6.60757 101.405H1.61966C1.0019 101.405 0.500488 101.906 0.500488 102.525C0.500488 103.142 1.0019 103.644 1.61966 103.644H105.053C105.67 103.644 106.172 103.142 106.172 102.524C106.172 101.906 105.67 101.405 105.053 101.405L105.052 101.405ZM14.5732 101.405L25.8371 65.7063C26.2131 64.5142 28.027 64.7969 28.0238 66.0463L27.9337 101.405L14.5732 101.405Z" fill="#233D34"/>
</g>
<path d="M32.1484 24.6849V14.3607C32.1484 13.3799 33.3741 12.8761 34.0631 13.5733C34.0844 13.5946 36.4538 15.9329 40.4947 17.1832C45.8826 18.8505 51.5725 17.9001 57.4061 14.359C58.3893 13.7625 59.2676 14.6556 59.1127 15.6388L59.1348 23.5369C60.8882 21.5435 63.1437 17.7706 61.8844 12.3771C59.483 2.09227 49.593 0.211914 42.6928 0.211914C33.2135 0.211914 28.5318 6.93609 28.5318 16.0329C28.5195 22.1113 30.7377 24.0605 32.1484 24.6849Z" fill="#233D34"/>
<path d="M56.8984 25.9326L56.9 17.551C56.8943 17.451 56.8926 17.3437 56.891 17.2249C49.6131 21.0674 43.5937 20.5095 39.7224 19.2863C37.4243 18.5604 35.6218 17.5354 34.3887 16.6865V25.9308C34.3887 32.1362 39.4372 37.1856 45.6435 37.1856C51.849 37.1856 56.8975 32.1372 56.8984 25.9326Z" fill="#233D34"/>
<path d="M51.0062 38.3141C47.4578 39.8519 43.299 39.7782 39.812 38.1035V43.0719H51.0062V38.3141Z" fill="#233D34"/>
<path d="M43.3945 45.313H47.4248V49.0458H43.3945V45.313Z" fill="#233D34"/>
<path d="M37.4985 48.4631L45.6131 67.3882L53.3186 48.4442L53.2654 45.311H49.6645V50.1639C49.6645 50.7825 49.1631 51.2839 48.5453 51.2839H42.2767C41.659 51.2839 41.1576 50.7825 41.1576 50.1639V45.311H37.5001L37.4985 48.4631Z" fill="#233D34"/>
<path d="M63.7715 68.9195V94.3656C64.5785 93.829 65.5445 93.5176 66.5711 93.5176H69.651L69.6502 66.0811H66.6098C65.0449 66.0811 63.7717 67.3543 63.7717 68.9191L63.7715 68.9195Z" fill="#233D34"/>
<path d="M71.8887 93.5188H95.7889V66.0801H71.8887V93.5188ZM79.9793 76.4362H82.7198V72.8401C82.7198 72.2215 83.2212 71.7201 83.839 71.7201C84.4567 71.7201 84.9582 72.2215 84.9582 72.8401V76.4362H87.6987C88.3164 76.4362 88.8178 76.9376 88.8178 77.5562C88.8178 78.1747 88.3164 78.6762 87.6987 78.6762H84.9582V86.7586C84.9582 87.3772 84.4567 87.8786 83.839 87.8786C83.2212 87.8786 82.7198 87.3772 82.7198 86.7586V78.6762H79.9793C79.3616 78.6762 78.8601 78.1747 78.8601 77.5562C78.8601 76.9376 79.3607 76.4362 79.9793 76.4362Z" fill="#233D34"/>
<path d="M83.1016 53.5349H91.5823V23.0193H101.556V14.609H91.5823V4.28076H83.1016V14.609H73.1289V23.0193H83.1016V53.5349Z" fill="#233D34"/>
</svg>
