<svg width="106" height="106" viewBox="0 0 106 106" fill="none" xmlns="http://www.w3.org/2000/svg">
<path d="M102.875 17.3434C103.638 17.1108 104.305 16.639 104.779 15.997C105.252 15.3549 105.505 14.578 105.5 13.7805V4.40368C105.504 3.2033 104.931 2.07459 103.963 1.36645C102.994 0.676944 101.759 0.482466 100.625 0.840715C69.6186 10.5544 36.3823 10.5544 5.37549 0.840715C4.24225 0.482466 3.00574 0.676944 2.03709 1.36645C1.06854 2.07459 0.497276 3.2033 0.500063 4.40368V13.7805C0.495411 14.578 0.748489 15.3549 1.22112 15.997C1.6947 16.639 2.36181 17.1108 3.12474 17.3434C5.97462 18.2433 8.8626 19.0314 11.7496 19.7813V32.5331L4.24968 32.5322C3.256 32.535 2.30419 32.9314 1.60179 33.634C0.89938 34.3365 0.50297 35.2884 0.500183 36.2822V41.9081C0.502974 42.9019 0.899333 43.8547 1.60179 44.5572C2.30424 45.2598 3.25605 45.6562 4.24968 45.659H11.7496V86.9128H9.87486C8.88118 86.9156 7.92937 87.312 7.22697 88.0146C6.52358 88.7171 6.12815 89.669 6.12536 90.6628V101.915C6.12815 102.908 6.52358 103.86 7.22697 104.563C7.92942 105.266 8.88123 105.662 9.87486 105.665H24.875C25.8687 105.662 26.8205 105.266 27.5239 104.563C28.2263 103.86 28.6217 102.908 28.6255 101.915V90.6628C28.6217 89.669 28.2263 88.7171 27.5239 88.0146C26.8205 87.312 25.8687 86.9156 24.875 86.9128H23.0002V45.659H82.9989V86.9128H81.1241C80.1305 86.9156 79.1786 87.312 78.4762 88.0146C77.7729 88.7171 77.3774 89.669 77.3746 90.6628V101.915C77.3774 102.908 77.7729 103.86 78.4762 104.563C79.1787 105.266 80.1305 105.662 81.1241 105.665H96.1243C97.118 105.662 98.0698 105.266 98.7731 104.563C99.4756 103.86 99.871 102.908 99.8747 101.915V90.6628C99.871 89.669 99.4756 88.7171 98.7731 88.0146C98.0697 87.312 97.1179 86.9156 96.1243 86.9128H94.2495V45.659H101.749C102.743 45.6562 103.695 45.2598 104.397 44.5572C105.101 43.8547 105.496 42.9018 105.499 41.9081V36.2822C105.496 35.2884 105.101 34.3364 104.397 33.634C103.695 32.9314 102.743 32.535 101.749 32.5322H94.2495V19.7804C97.1365 19.0685 100.025 18.2432 102.874 17.3435L102.875 17.3434ZM23.0001 32.5324V22.294C42.8337 25.9425 63.1651 25.9425 82.9988 22.294V32.5324H23.0001Z" fill="#233D34"/>
</svg>
