<svg width="100" height="105" viewBox="0 0 100 105" fill="none" xmlns="http://www.w3.org/2000/svg">
<path d="M53.1447 33.063V4.7002H46.5804V33.063H19.9595V39.6264H46.5804V100.186H53.1447V39.6264H79.7657V33.063H53.1447Z" fill="#233D34"/>
<path d="M53.1447 4.70264H46.5804V33.0655H19.9595V39.6288H46.5804V100.188H53.1447V39.6288H79.7657V33.0655H53.1447V4.70264Z" fill="#233D34"/>
<path d="M57.1703 29.0401V0.677246H42.5594V29.0401H15.9385V43.65H42.5594V104.198H57.1703V43.65H83.7912V29.0401H57.1703ZM81.099 40.9685H54.4757V101.54H45.2416V40.9685H18.6207V31.7215H45.2416V3.35872H54.4767L54.4757 31.7215H81.099L81.099 40.9685Z" fill="#233D34"/>
<path d="M57.1703 0.679688H42.5594V29.0425H15.9385V43.6524H42.5594V104.2H57.1703V43.6524H83.7912V29.0425H57.1703V0.679688ZM18.62 40.9695V31.7226H45.2409V3.35976H54.476L54.475 31.7226H81.0983V40.9686L54.475 40.9695V101.541H45.2409V40.9695L18.62 40.9695Z" fill="#233D34"/>
</svg>
